# xmcd CD database file
#
# Track frame offsets:
#	150
#	13379
#	37562
#	51003
#	75864
#	109681
#	148468
#	171439
#	188379
#	202725
#	220257
#	240677
#	263861
#
# Disc length: 3898 seconds
#
# Revision: 3
# Processed by: cddbd v1.5.1PL2 Copyright (c) Steve Scherf et al.
# Submitted via: CDex 1.51
#
DISCID=a80f380d
DTITLE=Willie-Le-Truc - O major tocador
DYEAR=1900
DGENRE=Blues
TTITLE0=O majpr tocador
TTITLE1=Sepp
TTITLE2=Piriri
TTITLE3=Efin
TTITLE4=Free Willie
TTITLE5=The Hall
TTITLE6=Czardas für Imre
TTITLE7=Arpita'sRosentraum
TTITLE8=Hinterm Ochsenberg
TTITLE9=Am Fuße des Makalu
TTITLE10=Un kumt di Sun
TTITLE11=A Hejmlecher Bulgar
TTITLE12=Terbang dan menari
EXTD=
EXTT0=
EXTT1=
EXTT2=
EXTT3=
EXTT4=
EXTT5=
EXTT6=
EXTT7=
EXTT8=
EXTT9=
EXTT10=
EXTT11=
EXTT12=
PLAYORDER=
